<?xml version="1.0" standalone="no"?>
<!DOCTYPE svg PUBLIC "-//W3C//DTD SVG 20010904//EN"
 "http://www.w3.org/TR/2001/REC-SVG-20010904/DTD/svg10.dtd">
<svg version="1.0" xmlns="http://www.w3.org/2000/svg"
 width="300.000000pt" height="329.000000pt" viewBox="0 0 300.000000 329.000000"
 preserveAspectRatio="xMidYMid meet">
<metadata>
Created by potrace 1.10, written by Peter Selinger 2001-2011
</metadata>
<g transform="translate(0.000000,329.000000) scale(0.050000,-0.050000)"
fill="#000000" stroke="none">
<path d="M1906 6565 c-191 -34 -178 -323 16 -363 62 -12 99 -63 492 -669 491
-755 441 -662 367 -693 -89 -36 -216 -184 -232 -268 l-13 -72 -465 0 c-397 0
-487 -6 -619 -39 -426 -110 -771 -430 -928 -864 l-53 -147 -7 -931 c-7 -1061
-2 -1109 140 -1398 147 -297 466 -572 769 -662 l82 -24 2 -141 c2 -263 125
-255 297 18 l56 88 1363 0 1362 0 103 -141 c169 -232 246 -224 259 27 l7 146
127 45 c371 133 666 446 805 853 l54 160 0 960 0 960 -54 160 c-228 668 -630
914 -1511 926 l-525 7 0 53 c0 97 -150 271 -266 309 -53 18 424 710 500 724
163 31 223 217 108 333 -146 146 -394 -2 -322 -192 19 -51 4 -80 -196 -387
-120 -183 -227 -351 -239 -373 -19 -37 -40 -40 -206 -38 l-185 2 -437 673
c-373 576 -433 680 -418 719 51 136 -78 268 -233 239z m1356 -1827 l172 2 88
-98 c48 -54 119 -139 157 -189 38 -50 76 -86 85 -81 9 6 16 1 16 -11 0 -11 14
-21 31 -21 17 0 27 -7 22 -15 -5 -8 50 -18 123 -21 73 -3 143 -15 156 -26 16
-13 29 -13 37 0 16 27 174 23 210 -5 22 -18 25 -17 14 2 -12 19 14 25 105 25
66 0 125 -9 133 -21 9 -15 20 -15 38 0 21 18 67 18 177 3 9 -1 11 -10 5 -20
-6 -10 7 -14 29 -8 23 6 40 1 40 -12 0 -18 11 -18 42 -1 30 16 39 16 29 1 -7
-12 0 -22 17 -22 16 0 37 -11 46 -25 9 -14 34 -25 56 -25 23 0 38 -12 35 -26
-4 -15 3 -21 15 -14 11 7 46 -6 77 -28 32 -23 63 -35 70 -28 7 7 13 2 13 -11
0 -13 45 -65 99 -116 55 -51 95 -101 89 -110 -6 -9 0 -17 12 -17 12 0 17 -9
10 -20 -7 -11 -3 -20 8 -20 28 0 107 -156 92 -181 -7 -10 -3 -19 8 -19 31 0
60 -127 34 -145 -15 -10 -14 -14 3 -15 14 0 25 -10 25 -21 0 -12 -8 -16 -19
-10 -10 6 -24 2 -31 -9 -7 -12 -2 -19 11 -15 13 3 29 -8 34 -23 6 -15 2 -22
-9 -16 -11 7 -19 0 -19 -16 0 -16 7 -24 16 -18 10 6 17 1 17 -11 0 -11 -10
-21 -22 -21 -17 0 -17 -7 0 -27 29 -35 24 -196 -6 -178 -15 8 -15 3 0 -16 15
-19 22 -143 20 -364 -1 -184 4 -335 10 -335 7 0 7 -34 0 -75 -18 -100 -14
-349 5 -380 8 -14 7 -25 -4 -25 -20 0 -14 -227 7 -261 7 -10 3 -19 -8 -19 -11
0 -16 -20 -11 -44 4 -23 -3 -57 -16 -73 -20 -25 -20 -28 2 -15 19 12 18 0 -6
-46 -18 -34 -27 -62 -22 -62 16 0 -53 -168 -74 -182 -10 -7 -20 -20 -22 -30
-2 -10 -10 -16 -18 -13 -8 3 -15 -11 -16 -30 0 -30 -124 -185 -148 -185 -4 0
-34 -25 -66 -55 -96 -92 -136 -119 -171 -113 -19 2 -34 -2 -34 -11 0 -20 -164
-93 -190 -84 -11 3 -14 0 -6 -8 15 -15 -103 -122 -127 -114 -9 2 -11 -8 -5
-24 8 -19 -1 -26 -25 -22 -21 4 -35 16 -32 29 3 12 -2 21 -10 20 -31 -5 -104
27 -96 41 5 8 -33 16 -84 18 -52 2 -103 13 -113 23 -11 11 -29 20 -41 20 -12
0 -7 -10 9 -21 21 -14 -7 -19 -100 -17 -71 2 -143 14 -159 26 -22 17 -25 16
-14 -3 12 -19 -10 -25 -87 -25 -77 0 -99 6 -87 25 11 19 6 18 -18 -1 -38 -31
-251 -29 -294 4 -22 17 -25 16 -14 -3 12 -19 -10 -25 -87 -25 -76 0 -99 6 -88
25 11 20 8 20 -13 0 -34 -32 -207 -34 -188 -3 9 15 -1 14 -31 -2 -32 -17 -50
-18 -66 -2 -12 12 -31 22 -43 22 -12 0 -7 -9 9 -20 21 -14 0 -19 -76 -20 -59
0 -102 7 -97 15 11 18 -112 17 -141 -1 -11 -7 -26 -7 -33 0 -17 17 -153 19
-153 2 0 -8 -11 -11 -25 -7 -70 23 -233 25 -256 4 -19 -18 -21 -16 -8 7 14 25
11 26 -14 5 -17 -13 -37 -19 -44 -11 -8 7 -47 12 -88 11 -272 -7 -343 -13
-333 -28 6 -9 0 -17 -13 -17 -12 0 -46 -19 -75 -41 -70 -55 -252 -1 -212 64 6
9 0 17 -13 17 -12 0 -48 18 -78 39 -31 22 -61 34 -68 27 -7 -7 -13 -1 -13 14
0 15 -6 21 -13 14 -17 -17 -91 24 -123 68 -14 20 -37 32 -52 26 -16 -6 -42 10
-60 35 -18 25 -32 38 -32 29 0 -9 -13 -6 -29 7 -17 14 -28 35 -25 47 2 13 -17
26 -43 30 -31 5 -42 17 -35 36 6 16 -3 35 -19 41 -17 7 -26 25 -20 41 6 15 2
23 -8 17 -25 -16 -96 79 -111 150 -7 33 -21 54 -31 48 -10 -6 -14 2 -7 18 6
16 2 34 -9 41 -10 7 -15 30 -9 52 6 23 1 40 -12 40 -13 0 -19 21 -14 50 5 28
2 46 -8 40 -10 -6 -17 16 -16 50 1 33 10 60 19 60 25 0 12 46 -20 71 -23 18
-22 27 6 55 19 19 26 34 16 34 -28 0 -27 143 0 177 19 23 19 27 1 16 -18 -11
-24 29 -21 162 1 97 -3 186 -10 197 -7 11 -6 30 1 42 8 13 12 132 10 265 -2
148 4 237 15 230 10 -6 19 -3 19 8 0 11 -11 23 -25 28 -19 7 -19 16 2 42 18
21 20 33 5 33 -12 0 -22 14 -22 31 0 20 9 26 25 16 19 -11 20 -8 3 14 -35 44
-46 159 -16 159 14 0 31 9 38 20 7 12 2 19 -11 15 -15 -3 -27 22 -30 60 -3 36
0 62 8 57 7 -5 15 16 16 45 6 89 29 192 49 212 10 10 18 35 18 55 0 20 10 36
23 36 13 0 18 6 11 13 -15 14 105 187 129 187 10 0 17 12 17 27 0 28 108 133
138 133 10 0 23 14 29 30 7 17 22 30 34 30 12 0 35 14 52 30 17 17 38 25 49
19 10 -6 18 -1 18 11 0 12 9 17 20 10 11 -7 20 -2 20 10 0 12 8 17 19 11 10
-6 24 -2 31 9 7 11 21 16 30 10 9 -6 23 -1 30 10 7 11 20 16 29 10 9 -5 21 2
27 17 6 16 38 24 87 22 42 -2 87 4 99 14 13 9 195 18 407 18 460 1 482 4 575
97 40 39 81 70 91 67 10 -4 12 3 5 15 -7 11 -2 20 10 20 12 0 17 8 11 18 -31
50 190 226 265 211 41 -8 151 -13 246 -11z"/>
<path d="M1360 3948 c0 -13 -24 -23 -54 -23 -30 0 -58 -10 -62 -23 -4 -12 -16
-17 -26 -11 -10 6 -18 0 -18 -13 0 -14 -6 -19 -12 -12 -7 6 -41 -15 -75 -47
-35 -32 -70 -59 -79 -59 -9 0 -11 -9 -4 -20 7 -11 -1 -25 -17 -32 -16 -6 -35
-33 -42 -60 -7 -27 -19 -45 -28 -40 -21 13 -27 -267 -28 -1358 -1 -935 -1
-927 45 -964 26 -21 25 -25 -10 -27 -37 -1 -36 -3 5 -20 25 -10 55 -40 67 -66
12 -27 44 -60 70 -74 25 -14 42 -33 36 -43 -6 -9 -4 -15 6 -13 9 2 49 -12 90
-30 41 -18 87 -33 102 -33 15 0 33 -5 39 -12 7 -7 299 -11 649 -9 350 2 650 3
666 2 260 -9 1500 -3 1516 6 12 8 27 4 34 -7 7 -11 22 -15 33 -8 10 6 56 14
101 16 51 3 91 18 107 40 15 20 36 30 48 23 11 -7 21 1 21 19 0 18 9 27 20 20
11 -7 20 -5 20 5 0 10 14 35 31 56 18 22 26 26 19 9 -7 -16 1 -13 19 9 27 34
35 61 29 104 -1 7 11 20 25 29 15 9 28 26 30 37 1 12 4 23 6 26 2 3 7 48 11
100 9 117 27 153 58 112 12 -16 38 -36 58 -43 20 -8 31 -23 24 -34 -7 -11 6
-21 29 -22 22 -2 50 -5 61 -8 11 -3 52 -6 91 -7 39 -2 66 -11 60 -21 -17 -28
40 -14 81 19 31 26 34 25 19 -1 -14 -24 -12 -25 10 -5 15 14 43 25 62 25 19 0
41 10 49 23 9 15 5 18 -14 8 -15 -8 -6 4 21 26 28 22 58 35 69 28 10 -6 13 -2
6 8 -7 11 12 47 42 79 30 33 56 66 60 74 3 7 10 27 17 44 6 16 19 25 29 19 10
-6 12 4 4 23 -9 26 -6 30 14 18 20 -13 23 -7 11 22 -9 21 -15 65 -15 98 3 115
-17 186 -72 256 -29 38 -66 86 -80 107 -14 20 -20 24 -13 7 7 -16 -11 -5 -39
26 -30 33 -62 50 -75 42 -15 -9 -20 -4 -13 14 12 31 7 32 -220 44 -104 5 -155
0 -180 -20 -30 -25 -28 -26 16 -6 47 21 48 21 11 -9 -21 -17 -55 -31 -76 -31
-21 0 -32 -9 -25 -20 7 -11 -6 -20 -29 -20 -44 0 -43 -10 -41 275 0 19 0 61
-1 93 -2 62 40 106 64 67 8 -13 9 -32 3 -42 -7 -11 -1 -12 14 -3 16 10 36 3
53 -20 14 -20 50 -39 80 -42 29 -3 61 -18 70 -32 11 -17 16 -18 17 -3 0 26 35
25 78 -2 20 -12 24 -10 13 7 -11 19 1 22 47 15 34 -5 58 -2 52 6 -5 9 17 27
49 41 32 13 73 41 92 61 19 21 41 34 49 29 9 -5 28 6 43 25 23 30 23 32 -4 15
-17 -11 -14 -4 7 15 21 19 48 29 59 22 13 -8 15 -4 7 10 -8 13 -25 17 -38 9
-24 -13 11 38 61 90 14 15 25 36 25 47 0 10 11 13 25 4 18 -10 18 -5 -2 18
-14 18 -24 67 -21 110 3 42 -1 87 -9 101 -9 13 -10 33 -3 44 7 11 5 20 -4 20
-9 0 -28 19 -43 42 -21 35 -21 40 1 29 14 -8 8 0 -14 17 -22 18 -82 72 -132
122 -51 49 -111 90 -134 90 -23 0 -48 10 -56 23 -9 15 -5 18 12 7 18 -11 21
-8 11 8 -9 15 -23 17 -38 6 -13 -10 -57 -17 -100 -15 -42 1 -80 -5 -86 -13 -5
-9 -26 -16 -47 -16 -21 0 -61 -21 -88 -47 -72 -66 -100 -58 -154 45 -51 96
-210 268 -259 278 -16 4 -32 14 -35 23 -3 9 -25 12 -48 6 -25 -7 -37 -3 -30 8
7 13 -40 17 -128 13 -109 -5 -137 -1 -125 19 11 20 8 20 -15 1 -16 -13 -76
-23 -133 -23 -56 0 -112 -5 -124 -12 -11 -7 -21 -6 -21 3 0 9 -542 15 -1205
13 -873 -1 -1209 4 -1220 20 -11 17 -14 17 -15 1z m3088 -270 c115 -90 112
-62 112 -1234 l0 -1078 -45 -68 c-97 -145 -13 -138 -1681 -138 -1619 0 -1570
-3 -1674 109 l-50 54 -6 1093 c-5 1176 -6 1165 100 1254 l59 50 1566 0 c1557
0 1566 0 1619 -42z m812 -275 c133 -71 193 -246 133 -390 -127 -302 -583 -208
-583 121 0 231 245 378 450 269z m20 -1208 c251 -171 137 -555 -166 -555 -302
0 -425 382 -177 551 97 66 250 68 343 4z"/>
</g>
</svg>
